<svg width="100" height="100" viewBox="0 0 100 100" fill="none" xmlns="http://www.w3.org/2000/svg">
<circle cx="50" cy="50" r="50" fill="white"/>
<path d="M71.3333 52.6667C71.3333 66 62 72.6667 50.9067 76.5333C50.3258 76.7302 49.6948 76.7208 49.12 76.5067C38 72.6667 28.6667 66 28.6667 52.6667V34C28.6667 33.2927 28.9476 32.6145 29.4477 32.1144C29.9478 31.6143 30.6261 31.3333 31.3333 31.3333C36.6667 31.3333 43.3333 28.1333 47.9733 24.08C48.5383 23.5973 49.2569 23.3321 50 23.3321C50.743 23.3321 51.4617 23.5973 52.0267 24.08C56.6933 28.16 63.3333 31.3333 68.6667 31.3333C69.3739 31.3333 70.0522 31.6143 70.5523 32.1144C71.0524 32.6145 71.3333 33.2927 71.3333 34V52.6667Z" stroke="black" stroke-width="5.33333" stroke-linecap="round" stroke-linejoin="round"/>
<path d="M42 50L47.3333 55.3333L58 44.6667" stroke="black" stroke-width="5.33333" stroke-linecap="round" stroke-linejoin="round"/>
</svg>
