<svg width="506" height="121" viewBox="0 0 506 121" fill="none" xmlns="http://www.w3.org/2000/svg">
<path d="M100.833 65.5417C100.833 90.75 83.1875 103.354 62.2142 110.665C61.1159 111.037 59.9229 111.019 58.8362 110.614C37.8125 103.354 20.1667 90.75 20.1667 65.5417V30.25C20.1667 28.9129 20.6978 27.6305 21.6433 26.685C22.5888 25.7395 23.8712 25.2083 25.2083 25.2083C35.2917 25.2083 47.8958 19.1583 56.6683 11.495C57.7364 10.5824 59.0951 10.0811 60.5 10.0811C61.9048 10.0811 63.2636 10.5824 64.3317 11.495C73.1546 19.2087 85.7083 25.2083 95.7917 25.2083C97.1288 25.2083 98.4112 25.7395 99.3567 26.685C100.302 27.6305 100.833 28.9129 100.833 30.25V65.5417Z" stroke="black" stroke-width="10.0833" stroke-linecap="round" stroke-linejoin="round"/>
<path d="M45.375 60.5L55.4583 70.5833L75.625 50.4167" stroke="black" stroke-width="10.0833" stroke-linecap="round" stroke-linejoin="round"/>
<path d="M141.456 84.024C137.829 84.024 134.693 83.0853 132.048 81.208C129.445 79.288 127.461 76.5573 126.096 73.016C124.731 69.4747 124.048 65.2507 124.048 60.344C124.048 55.4373 124.731 51.2133 126.096 47.672C127.461 44.088 129.445 41.336 132.048 39.416C134.693 37.496 137.829 36.536 141.456 36.536C145.936 36.536 149.584 37.9867 152.4 40.888C155.259 43.7467 157.093 47.7573 157.904 52.92L149.776 53.432C149.264 50.1893 148.304 47.7573 146.896 46.136C145.488 44.5147 143.675 43.704 141.456 43.704C139.579 43.704 137.936 44.344 136.528 45.624C135.163 46.8613 134.096 48.7387 133.328 51.256C132.603 53.7307 132.24 56.76 132.24 60.344C132.24 63.8853 132.603 66.8933 133.328 69.368C134.096 71.8427 135.163 73.72 136.528 75C137.936 76.2373 139.579 76.856 141.456 76.856C143.76 76.856 145.616 76.024 147.024 74.36C148.475 72.6533 149.456 70.0293 149.968 66.488L158.032 66.936C157.264 72.3547 155.451 76.5573 152.592 79.544C149.776 82.5307 146.064 84.024 141.456 84.024ZM179.575 83.768C176.418 83.768 173.623 83.0427 171.191 81.592C168.802 80.0987 166.924 78.008 165.559 75.32C164.236 72.632 163.575 69.4747 163.575 65.848C163.575 62.2213 164.236 59.064 165.559 56.376C166.924 53.688 168.802 51.6187 171.191 50.168C173.623 48.6747 176.418 47.928 179.575 47.928C182.732 47.928 185.506 48.6747 187.895 50.168C190.327 51.6187 192.204 53.688 193.527 56.376C194.892 59.064 195.575 62.2213 195.575 65.848C195.575 69.4747 194.892 72.632 193.527 75.32C192.204 78.008 190.327 80.0987 187.895 81.592C185.506 83.0427 182.732 83.768 179.575 83.768ZM179.575 76.856C182.092 76.856 184.055 75.896 185.463 73.976C186.871 72.0133 187.575 69.304 187.575 65.848C187.575 62.392 186.871 59.704 185.463 57.784C184.055 55.8213 182.092 54.84 179.575 54.84C177.058 54.84 175.095 55.8213 173.687 57.784C172.279 59.704 171.575 62.392 171.575 65.848C171.575 69.304 172.279 72.0133 173.687 73.976C175.095 75.896 177.058 76.856 179.575 76.856ZM204.574 48.696H211.422L211.678 58.04L210.846 57.656C211.401 54.456 212.638 52.0453 214.558 50.424C216.521 48.76 218.867 47.928 221.598 47.928C225.097 47.928 227.785 49.1013 229.662 51.448C231.539 53.7947 232.478 56.9093 232.478 60.792V83H224.862V62.84C224.862 59.9813 224.414 57.8693 223.518 56.504C222.622 55.1387 221.171 54.456 219.166 54.456C217.118 54.456 215.433 55.224 214.11 56.76C212.83 58.2533 212.19 60.408 212.19 63.224V83H204.574V48.696ZM260.997 83C257.328 83 254.597 82.1253 252.805 80.376C251.013 78.6267 250.117 75.9173 250.117 72.248V40.248H257.733V71.8C257.733 73.3787 258.096 74.552 258.821 75.32C259.589 76.088 260.762 76.472 262.341 76.472H271.173V83H260.997ZM239.941 48.696H271.173V55.224H239.941V48.696ZM294.956 83.768C291.756 83.768 288.94 83.0427 286.508 81.592C284.076 80.0987 282.199 78.008 280.876 75.32C279.553 72.632 278.892 69.4747 278.892 65.848C278.892 62.2213 279.553 59.064 280.876 56.376C282.199 53.688 284.055 51.6187 286.444 50.168C288.876 48.6747 291.671 47.928 294.828 47.928C297.815 47.928 300.503 48.632 302.892 50.04C305.281 51.4053 307.18 53.4533 308.588 56.184C309.996 58.9147 310.7 62.2 310.7 66.04V67.768H286.956C287.169 70.7547 287.98 73.016 289.388 74.552C290.796 76.088 292.652 76.856 294.956 76.856C296.705 76.856 298.177 76.4293 299.372 75.576C300.567 74.7227 301.441 73.5067 301.996 71.928L309.996 72.632C308.929 76.0453 307.073 78.7547 304.428 80.76C301.825 82.7653 298.668 83.768 294.956 83.768ZM302.38 62.456C302.039 59.9813 301.207 58.104 299.884 56.824C298.561 55.5013 296.876 54.84 294.828 54.84C292.78 54.84 291.073 55.5013 289.708 56.824C288.343 58.104 287.468 59.9813 287.084 62.456H302.38ZM319.699 48.696H326.547L326.803 58.04L325.971 57.656C326.526 54.456 327.763 52.0453 329.683 50.424C331.646 48.76 333.992 47.928 336.723 47.928C340.222 47.928 342.91 49.1013 344.787 51.448C346.664 53.7947 347.603 56.9093 347.603 60.792V83H339.987V62.84C339.987 59.9813 339.539 57.8693 338.643 56.504C337.747 55.1387 336.296 54.456 334.291 54.456C332.243 54.456 330.558 55.224 329.235 56.76C327.955 58.2533 327.315 60.408 327.315 63.224V83H319.699V48.696ZM376.122 83C372.453 83 369.722 82.1253 367.93 80.376C366.138 78.6267 365.242 75.9173 365.242 72.248V40.248H372.858V71.8C372.858 73.3787 373.221 74.552 373.946 75.32C374.714 76.088 375.887 76.472 377.466 76.472H386.298V83H376.122ZM355.066 48.696H386.298V55.224H355.066V48.696ZM400.737 49.592L401.505 49.336V83H393.697V37.56H403.873L411.041 69.816H408.609L415.777 37.56H425.953V83H418.145V49.336L418.913 49.592L412.577 77.88H407.073L400.737 49.592ZM448.2 83.768C445.043 83.768 442.248 83.0427 439.816 81.592C437.427 80.0987 435.549 78.008 434.184 75.32C432.861 72.632 432.2 69.4747 432.2 65.848C432.2 62.2213 432.861 59.064 434.184 56.376C435.549 53.688 437.427 51.6187 439.816 50.168C442.248 48.6747 445.043 47.928 448.2 47.928C451.357 47.928 454.131 48.6747 456.52 50.168C458.952 51.6187 460.829 53.688 462.152 56.376C463.517 59.064 464.2 62.2213 464.2 65.848C464.2 69.4747 463.517 72.632 462.152 75.32C460.829 78.008 458.952 80.0987 456.52 81.592C454.131 83.0427 451.357 83.768 448.2 83.768ZM448.2 76.856C450.717 76.856 452.68 75.896 454.088 73.976C455.496 72.0133 456.2 69.304 456.2 65.848C456.2 62.392 455.496 59.704 454.088 57.784C452.68 55.8213 450.717 54.84 448.2 54.84C445.683 54.84 443.72 55.8213 442.312 57.784C440.904 59.704 440.2 62.392 440.2 65.848C440.2 69.304 440.904 72.0133 442.312 73.976C443.72 75.896 445.683 76.856 448.2 76.856ZM484.015 83.768C481.284 83.768 478.895 83.0427 476.847 81.592C474.799 80.0987 473.22 78.008 472.111 75.32C471.044 72.632 470.511 69.4747 470.511 65.848C470.511 62.2213 471.044 59.064 472.111 56.376C473.22 53.688 474.799 51.6187 476.847 50.168C478.895 48.6747 481.284 47.928 484.015 47.928C486.148 47.928 488.068 48.44 489.775 49.464C491.524 50.4453 492.868 51.8107 493.807 53.56V37.56H501.423V83H494.191L493.999 77.944C493.06 79.864 491.716 81.3147 489.967 82.296C488.26 83.2773 486.276 83.768 484.015 83.768ZM485.935 76.856C487.556 76.856 488.943 76.4293 490.095 75.576C491.29 74.68 492.207 73.4 492.847 71.736C493.487 70.072 493.807 68.1093 493.807 65.848C493.807 63.544 493.487 61.56 492.847 59.896C492.207 58.232 491.29 56.9733 490.095 56.12C488.943 55.2667 487.556 54.84 485.935 54.84C483.588 54.84 481.754 55.8 480.431 57.72C479.151 59.64 478.511 62.3493 478.511 65.848C478.511 69.3467 479.151 72.056 480.431 73.976C481.754 75.896 483.588 76.856 485.935 76.856Z" fill="black"/>
</svg>
